<svg xmlns="http://www.w3.org/2000/svg" viewBox="0 0 800 760" role="img" aria-labelledby="title desc">
  <title id="title">Adjustable pillow in a calm bedroom</title>
  <desc id="desc">A soft white pillow with adjustable layers rests on a light bed beneath a peaceful blue and cream wall.</desc>
  <defs>
    <linearGradient id="wall" x1="0" y1="0" x2="1" y2="1"><stop stop-color="#e9f5f7"/><stop offset="1" stop-color="#f7f1e5"/></linearGradient>
    <linearGradient id="bed" x1="0" y1="0" x2="1" y2="1"><stop stop-color="#ffffff"/><stop offset="1" stop-color="#e7f1ec"/></linearGradient>
    <linearGradient id="pillow" x1="0" y1="0" x2="1" y2="1"><stop stop-color="#ffffff"/><stop offset="1" stop-color="#d9eae5"/></linearGradient>
    <filter id="shadow" x="-30%" y="-30%" width="160%" height="180%"><feDropShadow dx="0" dy="18" stdDeviation="22" flood-color="#617d78" flood-opacity=".18"/></filter>
    <filter id="soft" x="-30%" y="-30%" width="160%" height="160%"><feGaussianBlur stdDeviation="26"/></filter>
  </defs>
  <rect width="800" height="760" fill="url(#wall)"/>
  <circle cx="650" cy="132" r="115" fill="#fff" opacity=".46" filter="url(#soft)"/>
  <path d="M0 485C142 432 235 466 363 445c161-27 284-19 437 47v268H0Z" fill="url(#bed)"/>
  <path d="M0 598c142-55 277-32 391-55 140-29 279-16 409 36v181H0Z" fill="#dcece6" opacity=".62"/>
  <g opacity=".65">
    <path d="M96 104v285" stroke="#fff" stroke-width="8"/>
    <path d="M112 97h92v292" fill="none" stroke="#fff" stroke-width="5"/>
    <path d="M600 78v266M618 73h92v278" fill="none" stroke="#fff" stroke-width="6"/>
  </g>
  <g transform="translate(115 278)" filter="url(#shadow)">
    <path d="M39 139c26-59 81-94 152-88 92 8 163 5 245-5 67-8 119 27 132 87 11 53-22 107-77 116-103 18-277 19-385 5-60-8-91-62-67-115Z" fill="url(#pillow)"/>
    <path d="M52 155c74 29 156 27 243 16 92-12 171-6 257 5" fill="none" stroke="#bcd9d0" stroke-width="8" stroke-linecap="round" opacity=".7"/>
    <path d="M95 205c124 19 292 15 410-2" fill="none" stroke="#eef5f2" stroke-width="18" stroke-linecap="round"/>
    <ellipse cx="294" cy="95" rx="103" ry="24" fill="#f6faf8" opacity=".92"/>
  </g>
  <g fill="none" stroke="#7eaaa2" stroke-width="5" stroke-linecap="round" opacity=".72">
    <path d="M336 267v-42M323 240l13-15 13 15"/>
    <path d="M336 547v42M323 574l13 15 13-15"/>
  </g>
  <path d="M61 667c150-31 264 1 388-18 106-16 195-12 291 13" fill="none" stroke="#fff" stroke-width="9" stroke-linecap="round" opacity=".62"/>
</svg>
