<svg xmlns="http://www.w3.org/2000/svg" viewBox="0 0 1600 1000" role="img" aria-labelledby="title desc">
  <title id="title">Calm bedside technology scene</title>
  <desc id="desc">A quiet pre-dawn room with a glowing bedside object and soft flowing light.</desc>
  <defs>
    <linearGradient id="wall" x1="0" y1="0" x2="1" y2="1">
      <stop offset="0" stop-color="#122321"/>
      <stop offset="0.46" stop-color="#24413c"/>
      <stop offset="1" stop-color="#e4a071"/>
    </linearGradient>
    <linearGradient id="sheet" x1="0" y1="1" x2="1" y2="0">
      <stop offset="0" stop-color="#f7f1e6"/>
      <stop offset="1" stop-color="#c8d8cf"/>
    </linearGradient>
    <radialGradient id="glow" cx="64%" cy="42%" r="42%">
      <stop offset="0" stop-color="#fff5d6" stop-opacity="0.95"/>
      <stop offset="0.28" stop-color="#f4b77a" stop-opacity="0.46"/>
      <stop offset="1" stop-color="#f4b77a" stop-opacity="0"/>
    </radialGradient>
    <filter id="blur">
      <feGaussianBlur stdDeviation="18"/>
    </filter>
  </defs>
  <rect width="1600" height="1000" fill="url(#wall)"/>
  <rect y="650" width="1600" height="350" fill="url(#sheet)"/>
  <path d="M0 725 C210 668 374 716 540 680 C764 632 916 566 1166 620 C1348 660 1460 724 1600 690 L1600 1000 L0 1000 Z" fill="#eef1e8" opacity="0.84"/>
  <path d="M0 820 C240 760 404 826 614 782 C858 730 1018 784 1218 736 C1398 692 1490 714 1600 760 L1600 1000 L0 1000 Z" fill="#aabeb4" opacity="0.45"/>
  <ellipse cx="1010" cy="494" rx="390" ry="280" fill="url(#glow)" filter="url(#blur)"/>
  <rect x="950" y="520" width="270" height="54" rx="27" fill="#0f1d1b" opacity="0.68"/>
  <rect x="994" y="408" width="178" height="128" rx="42" fill="#f3b172"/>
  <rect x="1026" y="438" width="114" height="52" rx="26" fill="#fff4d5" opacity="0.88"/>
  <path d="M474 452 C620 342 742 374 900 442 C1018 492 1128 488 1238 410" fill="none" stroke="#d7f0e7" stroke-width="18" stroke-linecap="round" opacity="0.52"/>
  <path d="M560 530 C716 448 834 482 990 542 C1116 590 1254 564 1396 456" fill="none" stroke="#f8cf9d" stroke-width="12" stroke-linecap="round" opacity="0.58"/>
  <path d="M660 360 C808 270 1004 332 1112 256" fill="none" stroke="#eaf8f1" stroke-width="8" stroke-linecap="round" opacity="0.36"/>
  <circle cx="1240" cy="350" r="8" fill="#fff4d5" opacity="0.86"/>
  <circle cx="1318" cy="430" r="5" fill="#d7f0e7" opacity="0.74"/>
  <circle cx="852" cy="302" r="6" fill="#f8cf9d" opacity="0.7"/>
  <circle cx="744" cy="462" r="4" fill="#fff4d5" opacity="0.7"/>
</svg>
